# xmcd CD Database Entry
#
# Track frame offsets:
# 150
# 23845
# 52482
# 73580
# 100840
#
# Disc length: 1686 seconds
#
# Revision: 2
# Processed by: cddbd v1.4b41PL1 Copyright (c) Steve Scherf et al.
# Submitted via: tcd 2.0b
#
DISCID=43069405
DTITLE=Vessel - Vagabond
DYEAR=1900
DGENRE=
TTITLE0=Roma
TTITLE1=You are there
TTITLE2=Vagabond
TTITLE3=War dance
TTITLE4=Magi's Tale
EXTD=
EXTT0=
EXTT1=
EXTT2=
EXTT3=
EXTT4=
PLAYORDER=
